<svg xmlns="http://www.w3.org/2000/svg" width="24" height="24" viewBox="0 0 24 24" fill="none">
<path d="M21.685 9.5C21.8906 10.299 22 11.1368 22 12C22 17.5228 17.5228 22 12 22C6.47715 22 2 17.5228 2 12C2 6.47715 6.47715 2 12 2C12.8632 2 13.701 2.10938 14.5 2.31504" stroke="#BDBFC2" stroke-width="2" stroke-linecap="round"/>
<path d="M16.9753 12.5C16.7245 15.0266 14.5927 17 12 17C9.23858 17 7 14.7614 7 12C7 9.4073 8.97334 7.27552 11.5 7.02466" stroke="#BDBFC2" stroke-width="2" stroke-linecap="round"/>
<path d="M12 12L21 3" stroke="#BDBFC2" stroke-width="2" stroke-linecap="round"/>
<path d="M22.7929 3.29289C23.1834 3.68342 23.1834 4.31658 22.7929 4.70711L20.9393 6.56066C20.658 6.84196 20.2765 7 19.8787 7H17.5C17.2239 7 17 6.77614 17 6.5V4.12132C17 3.7235 17.158 3.34196 17.4393 3.06066L19.2929 1.20711C19.6834 0.816583 20.3166 0.816583 20.7071 1.20711L22.7929 3.29289Z" fill="#BDBFC2"/>
</svg>

