<svg width="24" height="24" viewBox="0 0 24 24" fill="none" xmlns="http://www.w3.org/2000/svg">
<g id="icons8-google-play-32">
<path id="Vector" d="M14.0005 10.5743L16.6786 7.8451C13.0194 5.58267 8.11825 2.54879 5.91416 1.1842L4.4381 0.271083C4.17709 0.109045 3.89808 0.0214013 3.62407 0L14.0005 10.5743ZM2.04 1.26777C2.019 1.38395 2 1.50013 2 1.62548V22.5213C2 22.6089 2.018 22.6904 2.03 22.774L12.5864 12.0153L2.04 1.26777ZM14.0005 13.4563L3.65407 24C3.85507 23.9643 4.05608 23.9022 4.24809 23.784C4.5141 23.6189 11.7004 19.1766 16.6256 16.1315L14.0005 13.4563ZM21.1748 10.6181C21.0598 10.5508 19.9847 9.88841 18.4387 8.9335L15.4145 12.0153L18.3857 15.0431C19.9597 14.0708 21.0498 13.3962 21.1708 13.3218C21.7058 12.9885 22.0088 12.4841 21.9998 11.9348C21.9918 11.3957 21.6888 10.9146 21.1748 10.6181Z" fill="#1256A0"/>
</g>
</svg>
