<svg width="24" height="24" viewBox="0 0 24 24" fill="none" xmlns="http://www.w3.org/2000/svg">
<g id="icons8-apple-logo-32">
<path id="Vector" d="M21.3744 8.18608C21.2653 8.25293 18.6672 9.66372 18.6672 12.7918C18.7897 16.3591 21.9459 17.6102 22 17.6102C21.9459 17.677 21.5235 19.3144 20.2724 21.0308C19.2795 22.5093 18.1775 24 16.504 24C14.9121 24 14.3407 23.0146 12.504 23.0146C10.5315 23.0146 9.97335 24 8.46314 24C6.78967 24 5.60599 22.4295 4.55896 20.9648C3.19871 19.0479 2.04254 16.0396 2.00172 13.1512C1.97422 11.6206 2.27413 10.116 3.03544 8.83808C4.10998 7.05397 6.02835 5.84286 8.1233 5.80292C9.72845 5.74996 11.157 6.8812 12.1366 6.8812C13.0754 6.8812 14.8305 5.80292 16.8163 5.80292C17.6735 5.80379 19.9592 6.05643 21.3744 8.18608ZM12.0009 5.49732C11.7151 4.09955 12.504 2.70178 13.2387 1.81016C14.1774 0.731877 15.6601 0 16.9388 0C17.0204 1.39777 16.5031 2.76863 15.5785 3.76704C14.7489 4.84532 13.3203 5.65707 12.0009 5.49732Z" fill="#1256A0"/>
</g>
</svg>
