<svg width="24" height="24" viewBox="0 0 24 24" fill="none" xmlns="http://www.w3.org/2000/svg">
<g id="icons8-twitter-50">
<path id="Vector" d="M22.4004 5.55073C21.6348 5.89073 20.8124 6.11953 19.9492 6.22273C20.8308 5.69473 21.5068 4.85873 21.8252 3.86193C21.0012 4.35073 20.0876 4.70593 19.1148 4.89793C18.3364 4.06833 17.2276 3.54993 16.0004 3.54993C13.6436 3.54993 11.7332 5.46113 11.7332 7.81713C11.7332 8.15153 11.7716 8.47793 11.8436 8.78913C8.29721 8.61153 5.15321 6.91233 3.04761 4.32993C2.68121 4.96033 2.47081 5.69313 2.47081 6.47633C2.47081 7.95633 3.22361 9.26273 4.36841 10.0275C3.66921 10.0051 3.01081 9.81313 2.43561 9.49393C2.43561 9.51233 2.43561 9.52913 2.43561 9.54753C2.43561 11.6155 3.90601 13.3403 5.85881 13.7315C5.50121 13.8291 5.12361 13.8811 4.73401 13.8811C4.45961 13.8811 4.19161 13.8539 3.93161 13.8051C4.47481 15.5003 6.05081 16.7347 7.91801 16.7691C6.45801 17.9139 4.61801 18.5963 2.61801 18.5963C2.27401 18.5963 1.93401 18.5763 1.59961 18.5363C3.48841 19.7467 5.73081 20.4531 8.14121 20.4531C15.9908 20.4531 20.282 13.9507 20.282 8.31153C20.282 8.12673 20.278 7.94273 20.27 7.75953C21.1044 7.15713 21.8284 6.40593 22.4004 5.55073Z" fill="white"/>
</g>
</svg>
