<svg width="35" height="35" viewBox="0 0 35 35" fill="none" xmlns="http://www.w3.org/2000/svg">
    <path fill-rule="evenodd" clip-rule="evenodd" d="M0 17.5C0 7.83502 7.83502 0 17.5 0C27.165 0 35 7.83502 35 17.5C35 27.165 27.165 35 17.5 35C7.83502 35 0 27.165 0 17.5ZM8.96875 14.5469V26.25H12.6875V14.5469H8.96875ZM8.75 10.8281C8.75 12.0312 9.625 12.9063 10.8281 12.9063C12.0312 12.9063 12.9063 12.0312 12.9063 10.8281C12.9063 9.625 12.0312 8.75 10.8281 8.75C9.73438 8.75 8.75 9.625 8.75 10.8281ZM22.5313 26.25H26.0313V19.0313C26.0313 15.4219 23.8437 14.2188 21.7656 14.2188C19.9062 14.2188 18.5938 15.4219 18.2656 16.1875V14.5469H14.7656V26.25H18.4844V20.0156C18.4844 18.375 19.5781 17.5 20.6719 17.5C21.7656 17.5 22.5313 18.0469 22.5313 19.9062V26.25Z" fill="black"/>
</svg>
