<svg width="110" height="110" viewBox="0 0 110 110" fill="none" xmlns="http://www.w3.org/2000/svg">
<g id="QR Code">
<path id="Vector" d="M4.13491 0.36792H0.367188V4.13564H4.13491V0.36792Z" fill="#181C21"/>
<path id="Vector_2" d="M7.90443 0.368164H4.13672V4.13588H7.90443V0.368164Z" fill="#181C21"/>
<path id="Vector_3" d="M11.6701 0.368164H7.90234V4.13588H11.6701V0.368164Z" fill="#181C21"/>
<path id="Vector_4" d="M15.4396 0.368164H11.6719V4.13588H15.4396V0.368164Z" fill="#181C21"/>
<path id="Vector_5" d="M19.2052 0.368164H15.4375V4.13588H19.2052V0.368164Z" fill="#181C21"/>
<path id="Vector_6" d="M22.9748 0.368164H19.207V4.13588H22.9748V0.368164Z" fill="#181C21"/>
<path id="Vector_7" d="M26.7443 0.368164H22.9766V4.13588H26.7443V0.368164Z" fill="#181C21"/>
<path id="Vector_8" d="M34.2794 0.368164H30.5117V4.13588H34.2794V0.368164Z" fill="#181C21"/>
<path id="Vector_9" d="M38.0412 0.368164H34.2734V4.13588H38.0412V0.368164Z" fill="#181C21"/>
<path id="Vector_10" d="M41.8146 0.368164H38.0469V4.13588H41.8146V0.368164Z" fill="#181C21"/>
<path id="Vector_11" d="M45.5802 0.368164H41.8125V4.13588H45.5802V0.368164Z" fill="#181C21"/>
<path id="Vector_12" d="M53.1154 0.368164H49.3477V4.13588H53.1154V0.368164Z" fill="#181C21"/>
<path id="Vector_13" d="M56.8849 0.368164H53.1172V4.13588H56.8849V0.368164Z" fill="#181C21"/>
<path id="Vector_14" d="M60.6505 0.368164H56.8828V4.13588H60.6505V0.368164Z" fill="#181C21"/>
<path id="Vector_15" d="M68.1896 0.368164H64.4219V4.13588H68.1896V0.368164Z" fill="#181C21"/>
<path id="Vector_16" d="M71.9552 0.368164H68.1875V4.13588H71.9552V0.368164Z" fill="#181C21"/>
<path id="Vector_17" d="M87.0255 0.368164H83.2578V4.13588H87.0255V0.368164Z" fill="#181C21"/>
<path id="Vector_18" d="M90.7912 0.368164H87.0234V4.13588H90.7912V0.368164Z" fill="#181C21"/>
<path id="Vector_19" d="M94.5607 0.36792H90.793V4.13564H94.5607V0.36792Z" fill="#181C21"/>
<path id="Vector_20" d="M98.3302 0.368164H94.5625V4.13588H98.3302V0.368164Z" fill="#181C21"/>
<path id="Vector_21" d="M102.096 0.36792H98.3281V4.13564H102.096V0.36792Z" fill="#181C21"/>
<path id="Vector_22" d="M105.861 0.368164H102.094V4.13588H105.861V0.368164Z" fill="#181C21"/>
<path id="Vector_23" d="M109.631 0.368164H105.863V4.13588H109.631V0.368164Z" fill="#181C21"/>
<path id="Vector_24" d="M4.13491 4.13574H0.367188V7.90346H4.13491V4.13574Z" fill="#181C21"/>
<path id="Vector_25" d="M26.7443 4.13574H22.9766V7.90346H26.7443V4.13574Z" fill="#181C21"/>
<path id="Vector_26" d="M45.5802 4.13574H41.8125V7.90346H45.5802V4.13574Z" fill="#181C21"/>
<path id="Vector_27" d="M49.3497 4.13574H45.582V7.90346H49.3497V4.13574Z" fill="#181C21"/>
<path id="Vector_28" d="M53.1154 4.13574H49.3477V7.90346H53.1154V4.13574Z" fill="#181C21"/>
<path id="Vector_29" d="M56.8849 4.13574H53.1172V7.90346H56.8849V4.13574Z" fill="#181C21"/>
<path id="Vector_30" d="M60.6505 4.13574H56.8828V7.90346H60.6505V4.13574Z" fill="#181C21"/>
<path id="Vector_31" d="M68.1857 4.13574H64.418V7.90346H68.1857V4.13574Z" fill="#181C21"/>
<path id="Vector_32" d="M71.9552 4.13574H68.1875V7.90346H71.9552V4.13574Z" fill="#181C21"/>
<path id="Vector_33" d="M75.7208 4.13574H71.9531V7.90346H75.7208V4.13574Z" fill="#181C21"/>
<path id="Vector_34" d="M79.4904 4.13574H75.7227V7.90346H79.4904V4.13574Z" fill="#181C21"/>
<path id="Vector_35" d="M87.0255 4.13574H83.2578V7.90346H87.0255V4.13574Z" fill="#181C21"/>
<path id="Vector_36" d="M109.631 4.13574H105.863V7.90346H109.631V4.13574Z" fill="#181C21"/>
<path id="Vector_37" d="M4.13491 7.9043H0.367188V11.672H4.13491V7.9043Z" fill="#181C21"/>
<path id="Vector_38" d="M11.6701 7.9043H7.90234V11.672H11.6701V7.9043Z" fill="#181C21"/>
<path id="Vector_39" d="M15.4396 7.9043H11.6719V11.672H15.4396V7.9043Z" fill="#181C21"/>
<path id="Vector_40" d="M19.2052 7.9043H15.4375V11.672H19.2052V7.9043Z" fill="#181C21"/>
<path id="Vector_41" d="M26.7443 7.9043H22.9766V11.672H26.7443V7.9043Z" fill="#181C21"/>
<path id="Vector_42" d="M38.0412 7.9043H34.2734V11.672H38.0412V7.9043Z" fill="#181C21"/>
<path id="Vector_43" d="M45.5802 7.9043H41.8125V11.672H45.5802V7.9043Z" fill="#181C21"/>
<path id="Vector_44" d="M53.1154 7.9043H49.3477V11.672H53.1154V7.9043Z" fill="#181C21"/>
<path id="Vector_45" d="M56.8849 7.9043H53.1172V11.672H56.8849V7.9043Z" fill="#181C21"/>
<path id="Vector_46" d="M79.4904 7.9043H75.7227V11.672H79.4904V7.9043Z" fill="#181C21"/>
<path id="Vector_47" d="M87.0255 7.9043H83.2578V11.672H87.0255V7.9043Z" fill="#181C21"/>
<path id="Vector_48" d="M94.5607 7.9043H90.793V11.672H94.5607V7.9043Z" fill="#181C21"/>
<path id="Vector_49" d="M98.3302 7.9043H94.5625V11.672H98.3302V7.9043Z" fill="#181C21"/>
<path id="Vector_50" d="M102.096 7.9043H98.3281V11.672H102.096V7.9043Z" fill="#181C21"/>
<path id="Vector_51" d="M109.631 7.9043H105.863V11.672H109.631V7.9043Z" fill="#181C21"/>
<path id="Vector_52" d="M4.13491 11.6721H0.367188V15.4398H4.13491V11.6721Z" fill="#181C21"/>
<path id="Vector_53" d="M11.6701 11.6721H7.90234V15.4398H11.6701V11.6721Z" fill="#181C21"/>
<path id="Vector_54" d="M15.4396 11.6724H11.6719V15.4401H15.4396V11.6724Z" fill="#181C21"/>
<path id="Vector_55" d="M19.2052 11.6724H15.4375V15.4401H19.2052V11.6724Z" fill="#181C21"/>
<path id="Vector_56" d="M26.7443 11.6724H22.9766V15.4401H26.7443V11.6724Z" fill="#181C21"/>
<path id="Vector_57" d="M41.8146 11.6724H38.0469V15.4401H41.8146V11.6724Z" fill="#181C21"/>
<path id="Vector_58" d="M45.5802 11.6724H41.8125V15.4401H45.5802V11.6724Z" fill="#181C21"/>
<path id="Vector_59" d="M56.8849 11.6724H53.1172V15.4401H56.8849V11.6724Z" fill="#181C21"/>
<path id="Vector_60" d="M60.6505 11.6724H56.8828V15.4401H60.6505V11.6724Z" fill="#181C21"/>
<path id="Vector_61" d="M68.1857 11.6724H64.418V15.4401H68.1857V11.6724Z" fill="#181C21"/>
<path id="Vector_62" d="M75.7208 11.6724H71.9531V15.4401H75.7208V11.6724Z" fill="#181C21"/>
<path id="Vector_63" d="M79.4904 11.6721H75.7227V15.4398H79.4904V11.6721Z" fill="#181C21"/>
<path id="Vector_64" d="M87.0255 11.6724H83.2578V15.4401H87.0255V11.6724Z" fill="#181C21"/>
<path id="Vector_65" d="M94.5607 11.6721H90.793V15.4398H94.5607V11.6721Z" fill="#181C21"/>
<path id="Vector_66" d="M98.3302 11.6724H94.5625V15.4401H98.3302V11.6724Z" fill="#181C21"/>
<path id="Vector_67" d="M102.096 11.6721H98.3281V15.4398H102.096V11.6721Z" fill="#181C21"/>
<path id="Vector_68" d="M109.631 11.6724H105.863V15.4401H109.631V11.6724Z" fill="#181C21"/>
<path id="Vector_69" d="M4.13491 15.4392H0.367188V19.2069H4.13491V15.4392Z" fill="#181C21"/>
<path id="Vector_70" d="M11.6701 15.439H7.90234V19.2067H11.6701V15.439Z" fill="#181C21"/>
<path id="Vector_71" d="M15.4396 15.439H11.6719V19.2067H15.4396V15.439Z" fill="#181C21"/>
<path id="Vector_72" d="M19.2052 15.439H15.4375V19.2067H19.2052V15.439Z" fill="#181C21"/>
<path id="Vector_73" d="M26.7443 15.439H22.9766V19.2067H26.7443V15.439Z" fill="#181C21"/>
<path id="Vector_74" d="M41.8146 15.439H38.0469V19.2067H41.8146V15.439Z" fill="#181C21"/>
<path id="Vector_75" d="M45.5802 15.439H41.8125V19.2067H45.5802V15.439Z" fill="#181C21"/>
<path id="Vector_76" d="M49.3497 15.439H45.582V19.2067H49.3497V15.439Z" fill="#181C21"/>
<path id="Vector_77" d="M53.1154 15.439H49.3477V19.2067H53.1154V15.439Z" fill="#181C21"/>
<path id="Vector_78" d="M60.6505 15.439H56.8828V19.2067H60.6505V15.439Z" fill="#181C21"/>
<path id="Vector_79" d="M71.9552 15.439H68.1875V19.2067H71.9552V15.439Z" fill="#181C21"/>
<path id="Vector_80" d="M75.7208 15.439H71.9531V19.2067H75.7208V15.439Z" fill="#181C21"/>
<path id="Vector_81" d="M79.4904 15.439H75.7227V19.2067H79.4904V15.439Z" fill="#181C21"/>
<path id="Vector_82" d="M87.0255 15.439H83.2578V19.2067H87.0255V15.439Z" fill="#181C21"/>
<path id="Vector_83" d="M94.5607 15.4392H90.793V19.2069H94.5607V15.4392Z" fill="#181C21"/>
<path id="Vector_84" d="M98.3302 15.439H94.5625V19.2067H98.3302V15.439Z" fill="#181C21"/>
<path id="Vector_85" d="M102.096 15.4392H98.3281V19.2069H102.096V15.4392Z" fill="#181C21"/>
<path id="Vector_86" d="M109.631 15.439H105.863V19.2067H109.631V15.439Z" fill="#181C21"/>
<path id="Vector_87" d="M4.13491 19.2075H0.367188V22.9752H4.13491V19.2075Z" fill="#181C21"/>
<path id="Vector_88" d="M26.7443 19.2075H22.9766V22.9752H26.7443V19.2075Z" fill="#181C21"/>
<path id="Vector_89" d="M38.0451 19.2075H34.2773V22.9752H38.0451V19.2075Z" fill="#181C21"/>
<path id="Vector_90" d="M45.5802 19.2075H41.8125V22.9752H45.5802V19.2075Z" fill="#181C21"/>
<path id="Vector_91" d="M53.1154 19.2075H49.3477V22.9752H53.1154V19.2075Z" fill="#181C21"/>
<path id="Vector_92" d="M56.8849 19.2075H53.1172V22.9752H56.8849V19.2075Z" fill="#181C21"/>
<path id="Vector_93" d="M79.4904 19.2075H75.7227V22.9752H79.4904V19.2075Z" fill="#181C21"/>
<path id="Vector_94" d="M87.0255 19.2075H83.2578V22.9752H87.0255V19.2075Z" fill="#181C21"/>
<path id="Vector_95" d="M109.631 19.2075H105.863V22.9752H109.631V19.2075Z" fill="#181C21"/>
<path id="Vector_96" d="M4.13491 22.9744H0.367188V26.7421H4.13491V22.9744Z" fill="#181C21"/>
<path id="Vector_97" d="M7.90443 22.9741H4.13672V26.7418H7.90443V22.9741Z" fill="#181C21"/>
<path id="Vector_98" d="M11.6701 22.9744H7.90234V26.7421H11.6701V22.9744Z" fill="#181C21"/>
<path id="Vector_99" d="M15.4396 22.9741H11.6719V26.7418H15.4396V22.9741Z" fill="#181C21"/>
<path id="Vector_100" d="M19.2052 22.9741H15.4375V26.7418H19.2052V22.9741Z" fill="#181C21"/>
<path id="Vector_101" d="M22.9748 22.9741H19.207V26.7418H22.9748V22.9741Z" fill="#181C21"/>
<path id="Vector_102" d="M26.7443 22.9741H22.9766V26.7418H26.7443V22.9741Z" fill="#181C21"/>
<path id="Vector_103" d="M34.2794 22.9741H30.5117V26.7418H34.2794V22.9741Z" fill="#181C21"/>
<path id="Vector_104" d="M41.8146 22.9741H38.0469V26.7418H41.8146V22.9741Z" fill="#181C21"/>
<path id="Vector_105" d="M49.3497 22.9741H45.582V26.7418H49.3497V22.9741Z" fill="#181C21"/>
<path id="Vector_106" d="M56.8849 22.9741H53.1172V26.7418H56.8849V22.9741Z" fill="#181C21"/>
<path id="Vector_107" d="M64.4201 22.9741H60.6523V26.7418H64.4201V22.9741Z" fill="#181C21"/>
<path id="Vector_108" d="M71.9552 22.9741H68.1875V26.7418H71.9552V22.9741Z" fill="#181C21"/>
<path id="Vector_109" d="M79.4904 22.9744H75.7227V26.7421H79.4904V22.9744Z" fill="#181C21"/>
<path id="Vector_110" d="M87.0255 22.9741H83.2578V26.7418H87.0255V22.9741Z" fill="#181C21"/>
<path id="Vector_111" d="M90.7912 22.9741H87.0234V26.7418H90.7912V22.9741Z" fill="#181C21"/>
<path id="Vector_112" d="M94.5607 22.9744H90.793V26.7421H94.5607V22.9744Z" fill="#181C21"/>
<path id="Vector_113" d="M98.3302 22.9741H94.5625V26.7418H98.3302V22.9741Z" fill="#181C21"/>
<path id="Vector_114" d="M102.096 22.9744H98.3281V26.7421H102.096V22.9744Z" fill="#181C21"/>
<path id="Vector_115" d="M105.861 22.9741H102.094V26.7418H105.861V22.9741Z" fill="#181C21"/>
<path id="Vector_116" d="M109.631 22.9741H105.863V26.7418H109.631V22.9741Z" fill="#181C21"/>
<path id="Vector_117" d="M34.2794 26.7432H30.5117V30.5109H34.2794V26.7432Z" fill="#181C21"/>
<path id="Vector_118" d="M38.0412 26.7432H34.2734V30.5109H38.0412V26.7432Z" fill="#181C21"/>
<path id="Vector_119" d="M49.3497 26.7432H45.582V30.5109H49.3497V26.7432Z" fill="#181C21"/>
<path id="Vector_120" d="M56.8849 26.7432H53.1172V30.5109H56.8849V26.7432Z" fill="#181C21"/>
<path id="Vector_121" d="M4.13491 30.5107H0.367188V34.2785H4.13491V30.5107Z" fill="#181C21"/>
<path id="Vector_122" d="M7.90443 30.5107H4.13672V34.2785H7.90443V30.5107Z" fill="#181C21"/>
<path id="Vector_123" d="M15.4396 30.5107H11.6719V34.2785H15.4396V30.5107Z" fill="#181C21"/>
<path id="Vector_124" d="M19.2052 30.5107H15.4375V34.2785H19.2052V30.5107Z" fill="#181C21"/>
<path id="Vector_125" d="M26.7443 30.5107H22.9766V34.2785H26.7443V30.5107Z" fill="#181C21"/>
<path id="Vector_126" d="M38.0451 30.5107H34.2773V34.2785H38.0451V30.5107Z" fill="#181C21"/>
<path id="Vector_127" d="M49.3497 30.5107H45.582V34.2785H49.3497V30.5107Z" fill="#181C21"/>
<path id="Vector_128" d="M53.1154 30.5107H49.3477V34.2785H53.1154V30.5107Z" fill="#181C21"/>
<path id="Vector_129" d="M56.8849 30.5107H53.1172V34.2785H56.8849V30.5107Z" fill="#181C21"/>
<path id="Vector_130" d="M60.6505 30.5107H56.8828V34.2785H60.6505V30.5107Z" fill="#181C21"/>
<path id="Vector_131" d="M64.4201 30.5107H60.6523V34.2785H64.4201V30.5107Z" fill="#181C21"/>
<path id="Vector_132" d="M68.1857 30.5107H64.418V34.2785H68.1857V30.5107Z" fill="#181C21"/>
<path id="Vector_133" d="M75.7208 30.5107H71.9531V34.2785H75.7208V30.5107Z" fill="#181C21"/>
<path id="Vector_134" d="M87.0255 30.5107H83.2578V34.2785H87.0255V30.5107Z" fill="#181C21"/>
<path id="Vector_135" d="M109.631 30.5107H105.863V34.2785H109.631V30.5107Z" fill="#181C21"/>
<path id="Vector_136" d="M4.13491 34.2786H0.367188V38.0463H4.13491V34.2786Z" fill="#181C21"/>
<path id="Vector_137" d="M7.90443 34.2788H4.13672V38.0465H7.90443V34.2788Z" fill="#181C21"/>
<path id="Vector_138" d="M15.4396 34.2788H11.6719V38.0465H15.4396V34.2788Z" fill="#181C21"/>
<path id="Vector_139" d="M22.9748 34.2788H19.207V38.0465H22.9748V34.2788Z" fill="#181C21"/>
<path id="Vector_140" d="M34.2794 34.2788H30.5117V38.0465H34.2794V34.2788Z" fill="#181C21"/>
<path id="Vector_141" d="M41.8146 34.2788H38.0469V38.0465H41.8146V34.2788Z" fill="#181C21"/>
<path id="Vector_142" d="M56.8849 34.2788H53.1172V38.0465H56.8849V34.2788Z" fill="#181C21"/>
<path id="Vector_143" d="M68.1896 34.2788H64.4219V38.0465H68.1896V34.2788Z" fill="#181C21"/>
<path id="Vector_144" d="M71.9552 34.2788H68.1875V38.0465H71.9552V34.2788Z" fill="#181C21"/>
<path id="Vector_145" d="M75.7208 34.2788H71.9531V38.0465H75.7208V34.2788Z" fill="#181C21"/>
<path id="Vector_146" d="M90.7912 34.2788H87.0234V38.0465H90.7912V34.2788Z" fill="#181C21"/>
<path id="Vector_147" d="M94.5607 34.2786H90.793V38.0463H94.5607V34.2786Z" fill="#181C21"/>
<path id="Vector_148" d="M102.096 34.2786H98.3281V38.0463H102.096V34.2786Z" fill="#181C21"/>
<path id="Vector_149" d="M105.861 34.2788H102.094V38.0465H105.861V34.2788Z" fill="#181C21"/>
<path id="Vector_150" d="M7.90443 38.0474H4.13672V41.8151H7.90443V38.0474Z" fill="#181C21"/>
<path id="Vector_151" d="M11.6701 38.0471H7.90234V41.8148H11.6701V38.0471Z" fill="#181C21"/>
<path id="Vector_152" d="M19.2052 38.0474H15.4375V41.8151H19.2052V38.0474Z" fill="#181C21"/>
<path id="Vector_153" d="M26.7443 38.0474H22.9766V41.8151H26.7443V38.0474Z" fill="#181C21"/>
<path id="Vector_154" d="M30.5099 38.0471H26.7422V41.8148H30.5099V38.0471Z" fill="#181C21"/>
<path id="Vector_155" d="M38.0451 38.0474H34.2773V41.8151H38.0451V38.0474Z" fill="#181C21"/>
<path id="Vector_156" d="M49.3497 38.0474H45.582V41.8151H49.3497V38.0474Z" fill="#181C21"/>
<path id="Vector_157" d="M56.8849 38.0474H53.1172V41.8151H56.8849V38.0474Z" fill="#181C21"/>
<path id="Vector_158" d="M68.1857 38.0474H64.418V41.8151H68.1857V38.0474Z" fill="#181C21"/>
<path id="Vector_159" d="M79.4904 38.0471H75.7227V41.8148H79.4904V38.0471Z" fill="#181C21"/>
<path id="Vector_160" d="M83.256 38.0474H79.4883V41.8151H83.256V38.0474Z" fill="#181C21"/>
<path id="Vector_161" d="M87.0255 38.0474H83.2578V41.8151H87.0255V38.0474Z" fill="#181C21"/>
<path id="Vector_162" d="M90.7912 38.0474H87.0234V41.8151H90.7912V38.0474Z" fill="#181C21"/>
<path id="Vector_163" d="M102.096 38.0471H98.3281V41.8148H102.096V38.0471Z" fill="#181C21"/>
<path id="Vector_164" d="M4.13491 41.813H0.367188V45.5807H4.13491V41.813Z" fill="#181C21"/>
<path id="Vector_165" d="M15.4396 41.813H11.6719V45.5807H15.4396V41.813Z" fill="#181C21"/>
<path id="Vector_166" d="M19.2052 41.813H15.4375V45.5807H19.2052V41.813Z" fill="#181C21"/>
<path id="Vector_167" d="M22.9748 41.813H19.207V45.5807H22.9748V41.813Z" fill="#181C21"/>
<path id="Vector_168" d="M34.2794 41.813H30.5117V45.5807H34.2794V41.813Z" fill="#181C21"/>
<path id="Vector_169" d="M56.8849 41.813H53.1172V45.5807H56.8849V41.813Z" fill="#181C21"/>
<path id="Vector_170" d="M60.6505 41.813H56.8828V45.5807H60.6505V41.813Z" fill="#181C21"/>
<path id="Vector_171" d="M68.1857 41.813H64.418V45.5807H68.1857V41.813Z" fill="#181C21"/>
<path id="Vector_172" d="M75.7208 41.813H71.9531V45.5807H75.7208V41.813Z" fill="#181C21"/>
<path id="Vector_173" d="M79.4904 41.813H75.7227V45.5807H79.4904V41.813Z" fill="#181C21"/>
<path id="Vector_174" d="M83.256 41.813H79.4883V45.5807H83.256V41.813Z" fill="#181C21"/>
<path id="Vector_175" d="M87.0255 41.813H83.2578V45.5807H87.0255V41.813Z" fill="#181C21"/>
<path id="Vector_176" d="M98.3302 41.813H94.5625V45.5807H98.3302V41.813Z" fill="#181C21"/>
<path id="Vector_177" d="M109.631 41.813H105.863V45.5807H109.631V41.813Z" fill="#181C21"/>
<path id="Vector_178" d="M4.13491 45.5808H0.367188V49.3485H4.13491V45.5808Z" fill="#181C21"/>
<path id="Vector_179" d="M11.6701 45.5806H7.90234V49.3483H11.6701V45.5806Z" fill="#181C21"/>
<path id="Vector_180" d="M19.2052 45.5806H15.4375V49.3483H19.2052V45.5806Z" fill="#181C21"/>
<path id="Vector_181" d="M26.7443 45.5806H22.9766V49.3483H26.7443V45.5806Z" fill="#181C21"/>
<path id="Vector_182" d="M30.5099 45.5806H26.7422V49.3483H30.5099V45.5806Z" fill="#181C21"/>
<path id="Vector_183" d="M38.0412 45.5806H34.2734V49.3483H38.0412V45.5806Z" fill="#181C21"/>
<path id="Vector_184" d="M41.8146 45.5806H38.0469V49.3483H41.8146V45.5806Z" fill="#181C21"/>
<path id="Vector_185" d="M53.1154 45.5806H49.3477V49.3483H53.1154V45.5806Z" fill="#181C21"/>
<path id="Vector_186" d="M56.8849 45.5806H53.1172V49.3483H56.8849V45.5806Z" fill="#181C21"/>
<path id="Vector_187" d="M64.4201 45.5806H60.6523V49.3483H64.4201V45.5806Z" fill="#181C21"/>
<path id="Vector_188" d="M71.9552 45.5806H68.1875V49.3483H71.9552V45.5806Z" fill="#181C21"/>
<path id="Vector_189" d="M79.4904 45.5806H75.7227V49.3483H79.4904V45.5806Z" fill="#181C21"/>
<path id="Vector_190" d="M87.0255 45.5806H83.2578V49.3483H87.0255V45.5806Z" fill="#181C21"/>
<path id="Vector_191" d="M90.7912 45.5806H87.0234V49.3483H90.7912V45.5806Z" fill="#181C21"/>
<path id="Vector_192" d="M109.631 45.5806H105.863V49.3483H109.631V45.5806Z" fill="#181C21"/>
<path id="Vector_193" d="M4.13491 49.3494H0.367188V53.1171H4.13491V49.3494Z" fill="#181C21"/>
<path id="Vector_194" d="M7.90443 49.3496H4.13672V53.1173H7.90443V49.3496Z" fill="#181C21"/>
<path id="Vector_195" d="M11.6701 49.3494H7.90234V53.1171H11.6701V49.3494Z" fill="#181C21"/>
<path id="Vector_196" d="M15.4396 49.3496H11.6719V53.1173H15.4396V49.3496Z" fill="#181C21"/>
<path id="Vector_197" d="M19.2052 49.3496H15.4375V53.1173H19.2052V49.3496Z" fill="#181C21"/>
<path id="Vector_198" d="M30.5099 49.3494H26.7422V53.1171H30.5099V49.3494Z" fill="#181C21"/>
<path id="Vector_199" d="M38.0451 49.3496H34.2773V53.1173H38.0451V49.3496Z" fill="#181C21"/>
<path id="Vector_200" d="M41.8146 49.3496H38.0469V53.1173H41.8146V49.3496Z" fill="#181C21"/>
<path id="Vector_201" d="M49.3497 49.3496H45.582V53.1173H49.3497V49.3496Z" fill="#181C21"/>
<path id="Vector_202" d="M68.1857 49.3496H64.418V53.1173H68.1857V49.3496Z" fill="#181C21"/>
<path id="Vector_203" d="M71.9552 49.3496H68.1875V53.1173H71.9552V49.3496Z" fill="#181C21"/>
<path id="Vector_204" d="M87.0255 49.3496H83.2578V53.1173H87.0255V49.3496Z" fill="#181C21"/>
<path id="Vector_205" d="M94.5607 49.3494H90.793V53.1171H94.5607V49.3494Z" fill="#181C21"/>
<path id="Vector_206" d="M98.3302 49.3496H94.5625V53.1173H98.3302V49.3496Z" fill="#181C21"/>
<path id="Vector_207" d="M102.096 49.3494H98.3281V53.1171H102.096V49.3494Z" fill="#181C21"/>
<path id="Vector_208" d="M105.861 49.3496H102.094V53.1173H105.861V49.3496Z" fill="#181C21"/>
<path id="Vector_209" d="M109.631 49.3496H105.863V53.1173H109.631V49.3496Z" fill="#181C21"/>
<path id="Vector_210" d="M11.6701 53.1162H7.90234V56.8839H11.6701V53.1162Z" fill="#181C21"/>
<path id="Vector_211" d="M26.7443 53.1162H22.9766V56.8839H26.7443V53.1162Z" fill="#181C21"/>
<path id="Vector_212" d="M38.0412 53.1162H34.2734V56.8839H38.0412V53.1162Z" fill="#181C21"/>
<path id="Vector_213" d="M41.8146 53.1162H38.0469V56.8839H41.8146V53.1162Z" fill="#181C21"/>
<path id="Vector_214" d="M56.8849 53.1162H53.1172V56.8839H56.8849V53.1162Z" fill="#181C21"/>
<path id="Vector_215" d="M60.6505 53.1162H56.8828V56.8839H60.6505V53.1162Z" fill="#181C21"/>
<path id="Vector_216" d="M68.1896 53.1162H64.4219V56.8839H68.1896V53.1162Z" fill="#181C21"/>
<path id="Vector_217" d="M75.7208 53.1162H71.9531V56.8839H75.7208V53.1162Z" fill="#181C21"/>
<path id="Vector_218" d="M79.4904 53.1162H75.7227V56.8839H79.4904V53.1162Z" fill="#181C21"/>
<path id="Vector_219" d="M90.7912 53.1162H87.0234V56.8839H90.7912V53.1162Z" fill="#181C21"/>
<path id="Vector_220" d="M102.096 53.1162H98.3281V56.8839H102.096V53.1162Z" fill="#181C21"/>
<path id="Vector_221" d="M109.631 53.1162H105.863V56.8839H109.631V53.1162Z" fill="#181C21"/>
<path id="Vector_222" d="M4.13491 56.8848H0.367188V60.6525H4.13491V56.8848Z" fill="#181C21"/>
<path id="Vector_223" d="M7.90443 56.8848H4.13672V60.6525H7.90443V56.8848Z" fill="#181C21"/>
<path id="Vector_224" d="M11.6701 56.8848H7.90234V60.6525H11.6701V56.8848Z" fill="#181C21"/>
<path id="Vector_225" d="M15.4396 56.8848H11.6719V60.6525H15.4396V56.8848Z" fill="#181C21"/>
<path id="Vector_226" d="M19.2052 56.8848H15.4375V60.6525H19.2052V56.8848Z" fill="#181C21"/>
<path id="Vector_227" d="M34.2794 56.8848H30.5117V60.6525H34.2794V56.8848Z" fill="#181C21"/>
<path id="Vector_228" d="M49.3497 56.8848H45.582V60.6525H49.3497V56.8848Z" fill="#181C21"/>
<path id="Vector_229" d="M53.1154 56.8848H49.3477V60.6525H53.1154V56.8848Z" fill="#181C21"/>
<path id="Vector_230" d="M56.8849 56.8848H53.1172V60.6525H56.8849V56.8848Z" fill="#181C21"/>
<path id="Vector_231" d="M60.6505 56.8848H56.8828V60.6525H60.6505V56.8848Z" fill="#181C21"/>
<path id="Vector_232" d="M79.4904 56.8848H75.7227V60.6525H79.4904V56.8848Z" fill="#181C21"/>
<path id="Vector_233" d="M90.7912 56.8848H87.0234V60.6525H90.7912V56.8848Z" fill="#181C21"/>
<path id="Vector_234" d="M94.5607 56.8848H90.793V60.6525H94.5607V56.8848Z" fill="#181C21"/>
<path id="Vector_235" d="M102.096 56.8848H98.3281V60.6525H102.096V56.8848Z" fill="#181C21"/>
<path id="Vector_236" d="M109.631 56.8848H105.863V60.6525H109.631V56.8848Z" fill="#181C21"/>
<path id="Vector_237" d="M7.90443 60.6514H4.13672V64.4191H7.90443V60.6514Z" fill="#181C21"/>
<path id="Vector_238" d="M22.9748 60.6514H19.207V64.4191H22.9748V60.6514Z" fill="#181C21"/>
<path id="Vector_239" d="M26.7443 60.6514H22.9766V64.4191H26.7443V60.6514Z" fill="#181C21"/>
<path id="Vector_240" d="M30.5099 60.6516H26.7422V64.4193H30.5099V60.6516Z" fill="#181C21"/>
<path id="Vector_241" d="M38.0451 60.6514H34.2773V64.4191H38.0451V60.6514Z" fill="#181C21"/>
<path id="Vector_242" d="M41.8146 60.6514H38.0469V64.4191H41.8146V60.6514Z" fill="#181C21"/>
<path id="Vector_243" d="M45.5802 60.6514H41.8125V64.4191H45.5802V60.6514Z" fill="#181C21"/>
<path id="Vector_244" d="M49.3497 60.6514H45.582V64.4191H49.3497V60.6514Z" fill="#181C21"/>
<path id="Vector_245" d="M75.7208 60.6514H71.9531V64.4191H75.7208V60.6514Z" fill="#181C21"/>
<path id="Vector_246" d="M79.4904 60.6516H75.7227V64.4193H79.4904V60.6516Z" fill="#181C21"/>
<path id="Vector_247" d="M98.3302 60.6514H94.5625V64.4191H98.3302V60.6514Z" fill="#181C21"/>
<path id="Vector_248" d="M4.13491 64.4202H0.367188V68.1879H4.13491V64.4202Z" fill="#181C21"/>
<path id="Vector_249" d="M7.90443 64.4199H4.13672V68.1876H7.90443V64.4199Z" fill="#181C21"/>
<path id="Vector_250" d="M19.2052 64.4199H15.4375V68.1876H19.2052V64.4199Z" fill="#181C21"/>
<path id="Vector_251" d="M22.9748 64.4199H19.207V68.1876H22.9748V64.4199Z" fill="#181C21"/>
<path id="Vector_252" d="M38.0412 64.4199H34.2734V68.1876H38.0412V64.4199Z" fill="#181C21"/>
<path id="Vector_253" d="M41.8146 64.4199H38.0469V68.1876H41.8146V64.4199Z" fill="#181C21"/>
<path id="Vector_254" d="M45.5802 64.4199H41.8125V68.1876H45.5802V64.4199Z" fill="#181C21"/>
<path id="Vector_255" d="M60.6505 64.4199H56.8828V68.1876H60.6505V64.4199Z" fill="#181C21"/>
<path id="Vector_256" d="M64.4201 64.4199H60.6523V68.1876H64.4201V64.4199Z" fill="#181C21"/>
<path id="Vector_257" d="M71.9552 64.4199H68.1875V68.1876H71.9552V64.4199Z" fill="#181C21"/>
<path id="Vector_258" d="M75.7208 64.4199H71.9531V68.1876H75.7208V64.4199Z" fill="#181C21"/>
<path id="Vector_259" d="M79.4904 64.4199H75.7227V68.1876H79.4904V64.4199Z" fill="#181C21"/>
<path id="Vector_260" d="M83.2599 64.4199H79.4922V68.1876H83.2599V64.4199Z" fill="#181C21"/>
<path id="Vector_261" d="M94.5607 64.4202H90.793V68.1879H94.5607V64.4202Z" fill="#181C21"/>
<path id="Vector_262" d="M102.096 64.4202H98.3281V68.1879H102.096V64.4202Z" fill="#181C21"/>
<path id="Vector_263" d="M105.861 64.4199H102.094V68.1876H105.861V64.4199Z" fill="#181C21"/>
<path id="Vector_264" d="M4.13491 68.187H0.367188V71.9547H4.13491V68.187Z" fill="#181C21"/>
<path id="Vector_265" d="M7.90443 68.187H4.13672V71.9547H7.90443V68.187Z" fill="#181C21"/>
<path id="Vector_266" d="M11.6701 68.187H7.90234V71.9547H11.6701V68.187Z" fill="#181C21"/>
<path id="Vector_267" d="M15.4396 68.187H11.6719V71.9547H15.4396V68.187Z" fill="#181C21"/>
<path id="Vector_268" d="M19.2052 68.187H15.4375V71.9547H19.2052V68.187Z" fill="#181C21"/>
<path id="Vector_269" d="M26.7443 68.187H22.9766V71.9547H26.7443V68.187Z" fill="#181C21"/>
<path id="Vector_270" d="M30.5099 68.187H26.7422V71.9547H30.5099V68.187Z" fill="#181C21"/>
<path id="Vector_271" d="M34.2794 68.187H30.5117V71.9547H34.2794V68.187Z" fill="#181C21"/>
<path id="Vector_272" d="M38.0451 68.187H34.2773V71.9547H38.0451V68.187Z" fill="#181C21"/>
<path id="Vector_273" d="M49.3497 68.187H45.582V71.9547H49.3497V68.187Z" fill="#181C21"/>
<path id="Vector_274" d="M53.1154 68.187H49.3477V71.9547H53.1154V68.187Z" fill="#181C21"/>
<path id="Vector_275" d="M56.8849 68.187H53.1172V71.9547H56.8849V68.187Z" fill="#181C21"/>
<path id="Vector_276" d="M60.6505 68.187H56.8828V71.9547H60.6505V68.187Z" fill="#181C21"/>
<path id="Vector_277" d="M68.1857 68.187H64.418V71.9547H68.1857V68.187Z" fill="#181C21"/>
<path id="Vector_278" d="M75.7208 68.187H71.9531V71.9547H75.7208V68.187Z" fill="#181C21"/>
<path id="Vector_279" d="M79.4904 68.187H75.7227V71.9547H79.4904V68.187Z" fill="#181C21"/>
<path id="Vector_280" d="M87.0255 68.187H83.2578V71.9547H87.0255V68.187Z" fill="#181C21"/>
<path id="Vector_281" d="M98.3302 68.187H94.5625V71.9547H98.3302V68.187Z" fill="#181C21"/>
<path id="Vector_282" d="M109.631 68.187H105.863V71.9547H109.631V68.187Z" fill="#181C21"/>
<path id="Vector_283" d="M4.13491 71.9548H0.367188V75.7226H4.13491V71.9548Z" fill="#181C21"/>
<path id="Vector_284" d="M7.90443 71.9551H4.13672V75.7228H7.90443V71.9551Z" fill="#181C21"/>
<path id="Vector_285" d="M11.6701 71.9551H7.90234V75.7228H11.6701V71.9551Z" fill="#181C21"/>
<path id="Vector_286" d="M15.4396 71.9551H11.6719V75.7228H15.4396V71.9551Z" fill="#181C21"/>
<path id="Vector_287" d="M19.2052 71.9551H15.4375V75.7228H19.2052V71.9551Z" fill="#181C21"/>
<path id="Vector_288" d="M22.9748 71.9551H19.207V75.7228H22.9748V71.9551Z" fill="#181C21"/>
<path id="Vector_289" d="M38.0412 71.9551H34.2734V75.7228H38.0412V71.9551Z" fill="#181C21"/>
<path id="Vector_290" d="M41.8146 71.9551H38.0469V75.7228H41.8146V71.9551Z" fill="#181C21"/>
<path id="Vector_291" d="M45.5802 71.9551H41.8125V75.7228H45.5802V71.9551Z" fill="#181C21"/>
<path id="Vector_292" d="M53.1154 71.9551H49.3477V75.7228H53.1154V71.9551Z" fill="#181C21"/>
<path id="Vector_293" d="M64.4201 71.9551H60.6523V75.7228H64.4201V71.9551Z" fill="#181C21"/>
<path id="Vector_294" d="M75.7208 71.9551H71.9531V75.7228H75.7208V71.9551Z" fill="#181C21"/>
<path id="Vector_295" d="M87.0255 71.9551H83.2578V75.7228H87.0255V71.9551Z" fill="#181C21"/>
<path id="Vector_296" d="M90.7912 71.9551H87.0234V75.7228H90.7912V71.9551Z" fill="#181C21"/>
<path id="Vector_297" d="M94.5607 71.9548H90.793V75.7226H94.5607V71.9548Z" fill="#181C21"/>
<path id="Vector_298" d="M98.3302 71.9551H94.5625V75.7228H98.3302V71.9551Z" fill="#181C21"/>
<path id="Vector_299" d="M102.096 71.9548H98.3281V75.7226H102.096V71.9548Z" fill="#181C21"/>
<path id="Vector_300" d="M4.13491 75.7234H0.367188V79.4911H4.13491V75.7234Z" fill="#181C21"/>
<path id="Vector_301" d="M7.90443 75.7236H4.13672V79.4913H7.90443V75.7236Z" fill="#181C21"/>
<path id="Vector_302" d="M15.4396 75.7236H11.6719V79.4913H15.4396V75.7236Z" fill="#181C21"/>
<path id="Vector_303" d="M22.9748 75.7236H19.207V79.4913H22.9748V75.7236Z" fill="#181C21"/>
<path id="Vector_304" d="M26.7443 75.7236H22.9766V79.4913H26.7443V75.7236Z" fill="#181C21"/>
<path id="Vector_305" d="M30.5099 75.7234H26.7422V79.4911H30.5099V75.7234Z" fill="#181C21"/>
<path id="Vector_306" d="M45.5802 75.7236H41.8125V79.4913H45.5802V75.7236Z" fill="#181C21"/>
<path id="Vector_307" d="M53.1154 75.7236H49.3477V79.4913H53.1154V75.7236Z" fill="#181C21"/>
<path id="Vector_308" d="M60.6505 75.7236H56.8828V79.4913H60.6505V75.7236Z" fill="#181C21"/>
<path id="Vector_309" d="M64.4201 75.7236H60.6523V79.4913H64.4201V75.7236Z" fill="#181C21"/>
<path id="Vector_310" d="M68.1857 75.7236H64.418V79.4913H68.1857V75.7236Z" fill="#181C21"/>
<path id="Vector_311" d="M75.7208 75.7236H71.9531V79.4913H75.7208V75.7236Z" fill="#181C21"/>
<path id="Vector_312" d="M79.4904 75.7234H75.7227V79.4911H79.4904V75.7234Z" fill="#181C21"/>
<path id="Vector_313" d="M83.256 75.7236H79.4883V79.4913H83.256V75.7236Z" fill="#181C21"/>
<path id="Vector_314" d="M87.0255 75.7236H83.2578V79.4913H87.0255V75.7236Z" fill="#181C21"/>
<path id="Vector_315" d="M90.7912 75.7236H87.0234V79.4913H90.7912V75.7236Z" fill="#181C21"/>
<path id="Vector_316" d="M94.5607 75.7234H90.793V79.4911H94.5607V75.7234Z" fill="#181C21"/>
<path id="Vector_317" d="M98.3302 75.7236H94.5625V79.4913H98.3302V75.7236Z" fill="#181C21"/>
<path id="Vector_318" d="M102.096 75.7234H98.3281V79.4911H102.096V75.7234Z" fill="#181C21"/>
<path id="Vector_319" d="M105.861 75.7236H102.094V79.4913H105.861V75.7236Z" fill="#181C21"/>
<path id="Vector_320" d="M34.2794 79.4912H30.5117V83.2589H34.2794V79.4912Z" fill="#181C21"/>
<path id="Vector_321" d="M38.0412 79.4912H34.2734V83.2589H38.0412V79.4912Z" fill="#181C21"/>
<path id="Vector_322" d="M49.3497 79.4912H45.582V83.2589H49.3497V79.4912Z" fill="#181C21"/>
<path id="Vector_323" d="M53.1154 79.4912H49.3477V83.2589H53.1154V79.4912Z" fill="#181C21"/>
<path id="Vector_324" d="M60.6505 79.4912H56.8828V83.2589H60.6505V79.4912Z" fill="#181C21"/>
<path id="Vector_325" d="M68.1896 79.4912H64.4219V83.2589H68.1896V79.4912Z" fill="#181C21"/>
<path id="Vector_326" d="M71.9552 79.4912H68.1875V83.2589H71.9552V79.4912Z" fill="#181C21"/>
<path id="Vector_327" d="M75.7208 79.4912H71.9531V83.2589H75.7208V79.4912Z" fill="#181C21"/>
<path id="Vector_328" d="M79.4904 79.4912H75.7227V83.2589H79.4904V79.4912Z" fill="#181C21"/>
<path id="Vector_329" d="M94.5607 79.4915H90.793V83.2592H94.5607V79.4915Z" fill="#181C21"/>
<path id="Vector_330" d="M98.3302 79.4912H94.5625V83.2589H98.3302V79.4912Z" fill="#181C21"/>
<path id="Vector_331" d="M4.13491 83.2588H0.367188V87.0265H4.13491V83.2588Z" fill="#181C21"/>
<path id="Vector_332" d="M7.90443 83.2588H4.13672V87.0265H7.90443V83.2588Z" fill="#181C21"/>
<path id="Vector_333" d="M11.6701 83.2588H7.90234V87.0265H11.6701V83.2588Z" fill="#181C21"/>
<path id="Vector_334" d="M15.4396 83.2588H11.6719V87.0265H15.4396V83.2588Z" fill="#181C21"/>
<path id="Vector_335" d="M19.2052 83.2588H15.4375V87.0265H19.2052V83.2588Z" fill="#181C21"/>
<path id="Vector_336" d="M22.9748 83.2588H19.207V87.0265H22.9748V83.2588Z" fill="#181C21"/>
<path id="Vector_337" d="M26.7443 83.2588H22.9766V87.0265H26.7443V83.2588Z" fill="#181C21"/>
<path id="Vector_338" d="M41.8146 83.2588H38.0469V87.0265H41.8146V83.2588Z" fill="#181C21"/>
<path id="Vector_339" d="M45.5802 83.2588H41.8125V87.0265H45.5802V83.2588Z" fill="#181C21"/>
<path id="Vector_340" d="M53.1154 83.2588H49.3477V87.0265H53.1154V83.2588Z" fill="#181C21"/>
<path id="Vector_341" d="M60.6505 83.2588H56.8828V87.0265H60.6505V83.2588Z" fill="#181C21"/>
<path id="Vector_342" d="M75.7208 83.2588H71.9531V87.0265H75.7208V83.2588Z" fill="#181C21"/>
<path id="Vector_343" d="M79.4904 83.2588H75.7227V87.0265H79.4904V83.2588Z" fill="#181C21"/>
<path id="Vector_344" d="M87.0255 83.2588H83.2578V87.0265H87.0255V83.2588Z" fill="#181C21"/>
<path id="Vector_345" d="M94.5607 83.2588H90.793V87.0265H94.5607V83.2588Z" fill="#181C21"/>
<path id="Vector_346" d="M98.3302 83.2588H94.5625V87.0265H98.3302V83.2588Z" fill="#181C21"/>
<path id="Vector_347" d="M4.13491 87.0266H0.367188V90.7943H4.13491V87.0266Z" fill="#181C21"/>
<path id="Vector_348" d="M26.7443 87.0269H22.9766V90.7946H26.7443V87.0269Z" fill="#181C21"/>
<path id="Vector_349" d="M38.0451 87.0269H34.2773V90.7946H38.0451V87.0269Z" fill="#181C21"/>
<path id="Vector_350" d="M45.5802 87.0269H41.8125V90.7946H45.5802V87.0269Z" fill="#181C21"/>
<path id="Vector_351" d="M49.3497 87.0269H45.582V90.7946H49.3497V87.0269Z" fill="#181C21"/>
<path id="Vector_352" d="M53.1154 87.0269H49.3477V90.7946H53.1154V87.0269Z" fill="#181C21"/>
<path id="Vector_353" d="M68.1857 87.0269H64.418V90.7946H68.1857V87.0269Z" fill="#181C21"/>
<path id="Vector_354" d="M75.7208 87.0269H71.9531V90.7946H75.7208V87.0269Z" fill="#181C21"/>
<path id="Vector_355" d="M79.4904 87.0266H75.7227V90.7943H79.4904V87.0266Z" fill="#181C21"/>
<path id="Vector_356" d="M94.5607 87.0266H90.793V90.7943H94.5607V87.0266Z" fill="#181C21"/>
<path id="Vector_357" d="M105.861 87.0269H102.094V90.7946H105.861V87.0269Z" fill="#181C21"/>
<path id="Vector_358" d="M109.631 87.0269H105.863V90.7946H109.631V87.0269Z" fill="#181C21"/>
<path id="Vector_359" d="M4.13491 90.7935H0.367188V94.5612H4.13491V90.7935Z" fill="#181C21"/>
<path id="Vector_360" d="M11.6701 90.7935H7.90234V94.5612H11.6701V90.7935Z" fill="#181C21"/>
<path id="Vector_361" d="M15.4396 90.7935H11.6719V94.5612H15.4396V90.7935Z" fill="#181C21"/>
<path id="Vector_362" d="M19.2052 90.7935H15.4375V94.5612H19.2052V90.7935Z" fill="#181C21"/>
<path id="Vector_363" d="M26.7443 90.7935H22.9766V94.5612H26.7443V90.7935Z" fill="#181C21"/>
<path id="Vector_364" d="M34.2794 90.7935H30.5117V94.5612H34.2794V90.7935Z" fill="#181C21"/>
<path id="Vector_365" d="M38.0412 90.7935H34.2734V94.5612H38.0412V90.7935Z" fill="#181C21"/>
<path id="Vector_366" d="M45.5802 90.7935H41.8125V94.5612H45.5802V90.7935Z" fill="#181C21"/>
<path id="Vector_367" d="M49.3497 90.7935H45.582V94.5612H49.3497V90.7935Z" fill="#181C21"/>
<path id="Vector_368" d="M53.1154 90.7935H49.3477V94.5612H53.1154V90.7935Z" fill="#181C21"/>
<path id="Vector_369" d="M64.4201 90.7935H60.6523V94.5612H64.4201V90.7935Z" fill="#181C21"/>
<path id="Vector_370" d="M75.7208 90.7935H71.9531V94.5612H75.7208V90.7935Z" fill="#181C21"/>
<path id="Vector_371" d="M79.4904 90.7935H75.7227V94.5612H79.4904V90.7935Z" fill="#181C21"/>
<path id="Vector_372" d="M83.2599 90.7935H79.4922V94.5612H83.2599V90.7935Z" fill="#181C21"/>
<path id="Vector_373" d="M87.0255 90.7935H83.2578V94.5612H87.0255V90.7935Z" fill="#181C21"/>
<path id="Vector_374" d="M90.7912 90.7935H87.0234V94.5612H90.7912V90.7935Z" fill="#181C21"/>
<path id="Vector_375" d="M94.5607 90.7935H90.793V94.5612H94.5607V90.7935Z" fill="#181C21"/>
<path id="Vector_376" d="M98.3302 90.7935H94.5625V94.5612H98.3302V90.7935Z" fill="#181C21"/>
<path id="Vector_377" d="M105.861 90.7935H102.094V94.5612H105.861V90.7935Z" fill="#181C21"/>
<path id="Vector_378" d="M109.631 90.7935H105.863V94.5612H109.631V90.7935Z" fill="#181C21"/>
<path id="Vector_379" d="M4.13491 94.562H0.367188V98.3297H4.13491V94.562Z" fill="#181C21"/>
<path id="Vector_380" d="M11.6701 94.562H7.90234V98.3297H11.6701V94.562Z" fill="#181C21"/>
<path id="Vector_381" d="M15.4396 94.562H11.6719V98.3297H15.4396V94.562Z" fill="#181C21"/>
<path id="Vector_382" d="M19.2052 94.562H15.4375V98.3297H19.2052V94.562Z" fill="#181C21"/>
<path id="Vector_383" d="M26.7443 94.562H22.9766V98.3297H26.7443V94.562Z" fill="#181C21"/>
<path id="Vector_384" d="M34.2794 94.562H30.5117V98.3297H34.2794V94.562Z" fill="#181C21"/>
<path id="Vector_385" d="M38.0451 94.562H34.2773V98.3297H38.0451V94.562Z" fill="#181C21"/>
<path id="Vector_386" d="M41.8146 94.562H38.0469V98.3297H41.8146V94.562Z" fill="#181C21"/>
<path id="Vector_387" d="M53.1154 94.562H49.3477V98.3297H53.1154V94.562Z" fill="#181C21"/>
<path id="Vector_388" d="M56.8849 94.562H53.1172V98.3297H56.8849V94.562Z" fill="#181C21"/>
<path id="Vector_389" d="M60.6505 94.562H56.8828V98.3297H60.6505V94.562Z" fill="#181C21"/>
<path id="Vector_390" d="M64.4201 94.562H60.6523V98.3297H64.4201V94.562Z" fill="#181C21"/>
<path id="Vector_391" d="M71.9552 94.562H68.1875V98.3297H71.9552V94.562Z" fill="#181C21"/>
<path id="Vector_392" d="M83.256 94.562H79.4883V98.3297H83.256V94.562Z" fill="#181C21"/>
<path id="Vector_393" d="M90.7912 94.562H87.0234V98.3297H90.7912V94.562Z" fill="#181C21"/>
<path id="Vector_394" d="M109.631 94.562H105.863V98.3297H109.631V94.562Z" fill="#181C21"/>
<path id="Vector_395" d="M4.13491 98.3289H0.367188V102.097H4.13491V98.3289Z" fill="#181C21"/>
<path id="Vector_396" d="M11.6701 98.3289H7.90234V102.097H11.6701V98.3289Z" fill="#181C21"/>
<path id="Vector_397" d="M15.4396 98.3286H11.6719V102.096H15.4396V98.3286Z" fill="#181C21"/>
<path id="Vector_398" d="M19.2052 98.3286H15.4375V102.096H19.2052V98.3286Z" fill="#181C21"/>
<path id="Vector_399" d="M26.7443 98.3286H22.9766V102.096H26.7443V98.3286Z" fill="#181C21"/>
<path id="Vector_400" d="M38.0451 98.3286H34.2773V102.096H38.0451V98.3286Z" fill="#181C21"/>
<path id="Vector_401" d="M45.5802 98.3286H41.8125V102.096H45.5802V98.3286Z" fill="#181C21"/>
<path id="Vector_402" d="M49.3497 98.3286H45.582V102.096H49.3497V98.3286Z" fill="#181C21"/>
<path id="Vector_403" d="M53.1154 98.3286H49.3477V102.096H53.1154V98.3286Z" fill="#181C21"/>
<path id="Vector_404" d="M60.6505 98.3286H56.8828V102.096H60.6505V98.3286Z" fill="#181C21"/>
<path id="Vector_405" d="M68.1857 98.3286H64.418V102.096H68.1857V98.3286Z" fill="#181C21"/>
<path id="Vector_406" d="M71.9552 98.3286H68.1875V102.096H71.9552V98.3286Z" fill="#181C21"/>
<path id="Vector_407" d="M75.7208 98.3286H71.9531V102.096H75.7208V98.3286Z" fill="#181C21"/>
<path id="Vector_408" d="M83.256 98.3286H79.4883V102.096H83.256V98.3286Z" fill="#181C21"/>
<path id="Vector_409" d="M90.7912 98.3286H87.0234V102.096H90.7912V98.3286Z" fill="#181C21"/>
<path id="Vector_410" d="M94.5607 98.3289H90.793V102.097H94.5607V98.3289Z" fill="#181C21"/>
<path id="Vector_411" d="M102.096 98.3289H98.3281V102.097H102.096V98.3289Z" fill="#181C21"/>
<path id="Vector_412" d="M105.861 98.3286H102.094V102.096H105.861V98.3286Z" fill="#181C21"/>
<path id="Vector_413" d="M109.631 98.3286H105.863V102.096H109.631V98.3286Z" fill="#181C21"/>
<path id="Vector_414" d="M4.13491 102.096H0.367188V105.864H4.13491V102.096Z" fill="#181C21"/>
<path id="Vector_415" d="M26.7443 102.097H22.9766V105.864H26.7443V102.097Z" fill="#181C21"/>
<path id="Vector_416" d="M34.2794 102.097H30.5117V105.864H34.2794V102.097Z" fill="#181C21"/>
<path id="Vector_417" d="M45.5802 102.097H41.8125V105.864H45.5802V102.097Z" fill="#181C21"/>
<path id="Vector_418" d="M64.4201 102.097H60.6523V105.864H64.4201V102.097Z" fill="#181C21"/>
<path id="Vector_419" d="M71.9552 102.097H68.1875V105.864H71.9552V102.097Z" fill="#181C21"/>
<path id="Vector_420" d="M75.7208 102.097H71.9531V105.864H75.7208V102.097Z" fill="#181C21"/>
<path id="Vector_421" d="M83.2599 102.097H79.4922V105.864H83.2599V102.097Z" fill="#181C21"/>
<path id="Vector_422" d="M87.0255 102.097H83.2578V105.864H87.0255V102.097Z" fill="#181C21"/>
<path id="Vector_423" d="M90.7912 102.097H87.0234V105.864H90.7912V102.097Z" fill="#181C21"/>
<path id="Vector_424" d="M98.3302 102.097H94.5625V105.864H98.3302V102.097Z" fill="#181C21"/>
<path id="Vector_425" d="M102.096 102.096H98.3281V105.864H102.096V102.096Z" fill="#181C21"/>
<path id="Vector_426" d="M109.631 102.097H105.863V105.864H109.631V102.097Z" fill="#181C21"/>
<path id="Vector_427" d="M4.13491 105.864H0.367188V109.632H4.13491V105.864Z" fill="#181C21"/>
<path id="Vector_428" d="M7.90443 105.864H4.13672V109.632H7.90443V105.864Z" fill="#181C21"/>
<path id="Vector_429" d="M11.6701 105.864H7.90234V109.632H11.6701V105.864Z" fill="#181C21"/>
<path id="Vector_430" d="M15.4396 105.864H11.6719V109.632H15.4396V105.864Z" fill="#181C21"/>
<path id="Vector_431" d="M19.2052 105.864H15.4375V109.632H19.2052V105.864Z" fill="#181C21"/>
<path id="Vector_432" d="M22.9748 105.864H19.207V109.632H22.9748V105.864Z" fill="#181C21"/>
<path id="Vector_433" d="M26.7443 105.864H22.9766V109.632H26.7443V105.864Z" fill="#181C21"/>
<path id="Vector_434" d="M34.2794 105.864H30.5117V109.632H34.2794V105.864Z" fill="#181C21"/>
<path id="Vector_435" d="M38.0451 105.864H34.2773V109.632H38.0451V105.864Z" fill="#181C21"/>
<path id="Vector_436" d="M56.8849 105.864H53.1172V109.632H56.8849V105.864Z" fill="#181C21"/>
<path id="Vector_437" d="M75.7208 105.864H71.9531V109.632H75.7208V105.864Z" fill="#181C21"/>
<path id="Vector_438" d="M79.4904 105.864H75.7227V109.632H79.4904V105.864Z" fill="#181C21"/>
<path id="Vector_439" d="M94.5607 105.864H90.793V109.632H94.5607V105.864Z" fill="#181C21"/>
<path id="Vector_440" d="M98.3302 105.864H94.5625V109.632H98.3302V105.864Z" fill="#181C21"/>
</g>
</svg>
